<?xml version="1.0" encoding="UTF-8"?>
<svg id="Layer_2" data-name="Layer 2" xmlns="http://www.w3.org/2000/svg" xmlns:xlink="http://www.w3.org/1999/xlink" viewBox="0 0 838.83 382.13">
  <defs>
    <style>
      .cls-1 {
        fill: #003449;
      }

      .cls-1, .cls-2 {
        stroke-width: 0px;
      }

      .cls-2 {
        fill: url(#linear-gradient);
      }
    </style>
    <linearGradient id="linear-gradient" x1="578.06" y1="45.31" x2="795.56" y2="262.81" gradientUnits="userSpaceOnUse">
      <stop offset="0" stop-color="#ffbd00"/>
      <stop offset=".2" stop-color="#ffb200"/>
      <stop offset=".56" stop-color="#ff9500"/>
      <stop offset="1" stop-color="#ff6900"/>
    </linearGradient>
  </defs>
  <g id="Layer_1-2" data-name="Layer 1">
    <g>
      <path class="cls-1" d="M100.15,111.85v17.08c-11.11-13.33-24.89-20-41.31-20s-30.32,5.84-41.72,17.45C5.72,137.98,0,151.89,0,168.18s5.68,30.28,17.03,42.01c11.32,11.77,24.93,17.65,40.86,17.65s30.04-6.75,42.26-20.2v16.46h16.71v-112.25h-16.71ZM88.63,199.62c-8.27,8.23-18.06,12.34-29.46,12.34s-21.44-4.28-29.67-12.88c-8.27-8.56-12.39-18.72-12.39-30.37s4.07-21.81,12.14-30.41c8.11-8.6,18.06-12.88,29.79-12.88s21.68,4.16,29.79,12.47c8.06,8.31,12.14,18.6,12.14,30.9s-4.11,22.55-12.34,30.82ZM229.2,224.12h-16.89v-53.57c0-12.36-.59-20.77-1.75-25.24-1.17-4.46-2.88-8.24-5.15-11.33-2.27-3.09-5.15-5.39-8.65-6.9-3.5-1.51-7.76-2.27-12.77-2.27s-9.92,1.23-14.73,3.71c-4.81,2.47-8.93,5.91-12.36,10.3-3.44,4.4-5.8,9.07-7.11,14.01-1.31,4.94-1.96,14.84-1.96,29.67v41.62h-17.1v-112.28h17.1v16.89c11.12-13.18,24.31-19.78,39.56-19.78,8.1,0,15.45,2.09,22.04,6.28,6.59,4.19,11.54,9.96,14.84,17.31,3.29,7.35,4.94,18.64,4.94,33.89v57.69ZM408.38,224.12h-17.31v-61.19c0-9.75-.59-16.89-1.75-21.43-1.17-4.53-3.71-8.35-7.62-11.44-3.91-3.09-9.07-4.63-15.45-4.63s-12.4,2.06-18.03,6.18c-5.63,4.12-9.55,9.72-11.74,16.79-2.2,7.07-3.29,17.55-3.29,31.42v44.29h-16.69v-57.48c0-11.26-.58-19.36-1.75-24.31-1.17-4.95-3.74-8.99-7.73-12.16-3.98-3.16-9-4.74-15.04-4.74s-11.78,1.89-17.2,5.67c-5.43,3.78-9.44,8.72-12.05,14.83-2.61,6.12-3.92,16.25-3.92,30.39v47.8h-16.89v-112.28h16.89v15.86c9.61-12.5,21.63-18.75,36.06-18.75,7.83,0,14.94,2.09,21.32,6.28,6.38,4.19,10.95,10.13,13.7,17.82,4.67-7.83,10.51-13.81,17.51-17.93,7.01-4.12,14.42-6.18,22.25-6.18,10.71,0,19.85,3.78,27.4,11.33,7.55,7.55,11.33,21.77,11.33,42.65v61.19ZM531.42,224.12h-16.69v-16.48c-12.23,13.46-26.3,20.19-42.24,20.19s-29.56-5.87-40.9-17.62c-11.33-11.74-17-25.75-17-42.03s5.7-30.22,17.1-41.83c11.4-11.6,25.3-17.41,41.72-17.41s30.18,6.66,41.31,19.98v-17.1h16.69v112.28ZM473.73,211.96c11.4,0,21.22-4.12,29.46-12.36,8.24-8.24,12.36-18.51,12.36-30.8s-4.05-22.59-12.16-30.9c-8.11-8.31-18.03-12.46-29.77-12.46s-21.67,4.29-29.77,12.87c-8.1,8.59-12.16,18.72-12.16,30.39s4.12,21.81,12.36,30.39c8.24,8.58,18.13,12.87,29.67,12.87ZM636.76,224.12h-24.52l-52.74-47.38v47.38h-17.1V69.6h17.1v84.68l48.42-42.24,25.34-.2-61.81,53.57,65.31,58.71ZM79.02,279.32l-10.92,11.33c-8.1-7.55-15.52-11.33-22.25-11.33-4.26,0-7.83,1.34-10.72,4.02-2.88,2.68-4.32,5.98-4.32,9.89s1.61,7.35,4.84,10.3c3.22,2.95,8.96,6.59,17.2,10.92,8.24,4.33,14.59,9.1,19.06,14.32,4.46,5.22,6.69,11.6,6.69,19.16,0,9.62-3.33,17.72-9.99,24.31-6.66,6.59-14.87,9.89-24.62,9.89-13.6,0-24.93-5.77-33.99-17.31l10.71-11.95c7.42,8.65,14.97,12.98,22.66,12.98,5.22,0,9.68-1.72,13.39-5.15,3.71-3.43,5.57-7.45,5.57-12.05s-1.68-8.45-5.05-11.54c-3.37-3.09-9.13-6.69-17.31-10.82-8.17-4.12-14.35-8.68-18.54-13.7-4.19-5.01-6.28-11.6-6.28-19.78s2.99-15.14,8.96-20.91c5.98-5.77,13.87-8.65,23.7-8.65s20.22,5.36,31.21,16.07ZM141.98,263.25c16.21,0,29.98,5.84,41.31,17.51,11.33,11.68,17,25.68,17,42.03s-5.6,30.32-16.79,41.93c-11.19,11.61-25.03,17.41-41.51,17.41s-30.36-5.8-41.62-17.41c-11.27-11.6-16.9-25.58-16.9-41.93s5.67-30.35,17-42.03c11.33-11.67,25.17-17.51,41.52-17.51ZM141.98,365.85c11.4,0,21.12-4.15,29.15-12.46,8.04-8.31,12.05-18.34,12.05-30.08s-4.09-21.91-12.26-30.49c-8.17-8.58-17.86-12.87-29.05-12.87s-20.84,4.3-28.95,12.87c-8.1,8.59-12.16,18.79-12.16,30.59s3.91,21.84,11.75,30.08c7.83,8.24,17.65,12.36,29.46,12.36ZM229.25,378.42h-16.9v-154.52h16.9v154.52ZM358.24,378.42h-16.69v-16.48c-12.23,13.46-26.3,20.19-42.24,20.19s-29.57-5.87-40.9-17.62c-11.33-11.74-17-25.75-17-42.03s5.7-30.22,17.1-41.83c11.4-11.6,25.3-17.41,41.72-17.41s30.18,6.66,41.31,19.98v-17.1h16.69v112.28ZM300.55,366.26c11.4,0,21.22-4.12,29.46-12.36,8.24-8.24,12.36-18.51,12.36-30.8s-4.05-22.59-12.16-30.9c-8.11-8.31-18.03-12.46-29.77-12.46s-21.67,4.29-29.77,12.87c-8.1,8.59-12.16,18.72-12.16,30.39s4.12,21.81,12.36,30.39c8.24,8.58,18.13,12.87,29.67,12.87ZM428.6,267.79l-8.86,14.42c-2.33-1.24-4.6-1.86-6.8-1.86-4.26,0-8.1,2.1-11.54,6.28-3.44,4.19-6.01,9.68-7.73,16.48-1.72,6.8-2.58,19.06-2.58,36.77v38.53h-17.31v-112.28h17.31v12.16c3.43-5.08,6.9-8.86,10.4-11.33,3.5-2.48,7.49-3.71,11.95-3.71s9.51,1.51,15.14,4.53Z"/>
      <path class="cls-2" d="M838.83,179.51c-2.94,17.63-8.87,34.26-17.26,49.32l-61.65-28.16c4.39-9.76,7.44-20.24,8.92-31.23l69.98,10.06ZM826.18,88.2s0-.03-.02-.04c-1.64-3.48-3.41-6.88-5.31-10.21l-61.55,28.1h0c4.51,9.68,7.7,20.08,9.33,30.99l69.93-10.05c-2.42-13.63-6.63-26.64-12.38-38.78ZM764.58,21s-.03-.02-.04-.02c-5.72-3.35-11.66-6.34-17.81-8.93l-29.52,45.94c5.36,3.41,10.42,7.27,15.12,11.52.01,0,.01.01.02.02,3.29,2.97,6.4,6.14,9.32,9.47l46.9-40.65c-7.4-6.53-15.44-12.34-23.99-17.34ZM686.9,0c-7.01,0-13.92.46-20.69,1.38-.01-.01-.02,0-.04,0-3.42.46-6.81,1.04-10.16,1.72v37.04c3.59,0,7.14.17,10.64.5.01-.01.03-.01.04,0,7.29.67,14.38,2.03,21.2,4.02l12.93-44.03c-4.58-.42-9.23-.63-13.92-.63ZM616.08,17.23c-11.93,6.18-22.94,13.89-32.79,22.85l11.51,17.91c6.23-3.98,12.88-7.37,19.85-10.09.01-.01.02-.01.03-.02,3.08-1.2,6.23-2.27,9.45-3.2l-8.05-27.44ZM608.27,257.42s-.02,0-.03-.01c-4.92-2.27-9.64-4.89-14.16-7.82l-11.44,17.78c9.9,9.11,21,16.94,33.03,23.24l8.03-27.36c-5.32-1.57-10.47-3.52-15.44-5.82ZM688.31,263.24c-1.19.37-2.39.7-3.6,1.02-.01,0-.02,0-.03.01-8.01,2.07-16.37,3.3-24.97,3.56-.01.01-.02.01-.03,0-1.23.05-2.45.07-3.68.07v37.02c.28.06.58.13.86.18.01.02.02.03.04.02,9.7,1.92,19.73,2.92,29.99,2.92,1.66,0,3.32-.02,4.97-.09.02.01.03.01.04,0,3.14-.09,6.26-.28,9.35-.58l-12.95-44.13ZM742.45,228.12c-4.63,5.41-9.76,10.38-15.33,14.84-.01.01-.02.02-.03.02-2.93,2.36-5.99,4.57-9.15,6.61l29.59,46.05c2.99-1.28,5.94-2.66,8.83-4.13h.02s0,0,.01-.01c9.49-4.79,18.43-10.56,26.65-17.15.02,0,.03-.01.04-.03,2.19-1.75,4.31-3.56,6.4-5.42l-47.03-40.77Z"/>
    </g>
  </g>
</svg>