<?xml version="1.0" encoding="UTF-8"?>
<svg version="1.1" xmlns="http://www.w3.org/2000/svg" width="512" height="512">
<path d="M0 0 C114.84 0 229.68 0 348 0 C348 7.12710902 347.90145972 14.08756387 347.41949463 21.17460632 C347.35698005 22.1364343 347.29446548 23.09826228 347.23005652 24.08923656 C347.02176476 27.27937577 346.80828642 30.469145 346.59472656 33.65893555 C346.44331144 35.9596735 346.29217548 38.26042984 346.14129639 40.561203 C345.73170804 46.78896201 345.31714475 53.01637935 344.90086079 59.24369407 C344.64034164 63.14095765 344.38051419 67.03826683 344.12084198 70.93558693 C343.39972647 81.75264832 342.67700067 92.56959893 341.94882584 103.38618755 C341.76046734 106.18445945 341.57211553 108.9827318 341.38378906 111.78100586 C341.33698847 112.47637346 341.29018787 113.17174106 341.24196908 113.88818041 C340.4845397 125.14717571 339.73952689 136.40695626 338.99972466 147.66712215 C338.23771691 159.2622188 337.4644103 170.85651786 336.68088126 182.45018035 C336.24216138 188.94577542 335.8081732 195.44160232 335.38605499 201.93829918 C334.9884525 208.05336503 334.57685324 214.16733449 334.15485382 220.28076363 C334.00309211 222.51355449 333.85621759 224.74668426 333.71482849 226.98015594 C332.34223373 248.57550501 329.68109016 267.7857043 314 284 C310.50297584 286.9697346 306.8759127 289.54991104 303 292 C302.36835938 292.40863281 301.73671875 292.81726563 301.0859375 293.23828125 C288.05199442 300.67394481 272.66461271 300.58300353 258.16015625 300.51757812 C256.11481226 300.52301127 254.0694722 300.53014056 252.0241394 300.53881836 C246.51582447 300.55691284 241.00781226 300.55004195 235.49949265 300.53730202 C229.70676672 300.52710191 223.91406494 300.53658701 218.12133789 300.54284668 C208.39757687 300.5501028 198.67393778 300.54058897 188.95019531 300.52148438 C177.74384189 300.49971966 166.53777967 300.50677247 155.3314333 300.52879 C145.67146741 300.54700217 136.01158866 300.54947397 126.35161114 300.53903532 C120.59895245 300.53283228 114.84643018 300.53187624 109.09378052 300.54518127 C103.68282719 300.55682418 98.27224555 300.54856131 92.86133194 300.52560425 C90.8878249 300.52036193 88.91428601 300.52175305 86.94079208 300.53065491 C66.80859496 300.61302109 48.22870602 297.6179881 32.99609375 283.16796875 C29.52817641 279.40144405 26.68805759 275.34874238 24 271 C23.61070313 270.38898438 23.22140625 269.77796875 22.8203125 269.1484375 C15.1591144 255.66710441 15.02889327 238.72845579 14.07714844 223.6940918 C13.92015992 221.38440161 13.76190043 219.07479752 13.60247803 216.76527405 C13.17637802 210.53923626 12.76818386 204.31214385 12.36355877 198.08467841 C11.93586178 191.5468912 11.49213073 185.01019101 11.050354 178.4733429 C10.31086477 167.50526859 9.58299839 156.53646298 8.86230469 145.56713867 C8.12232054 134.30450095 7.37414429 123.04245028 6.61621094 111.78100586 C6.5694699 111.08649791 6.52272887 110.39198997 6.47457144 109.67643633 C6.28661546 106.88391047 6.09864822 104.09138537 5.91065501 101.29886202 C5.14185044 89.87503088 4.37988084 78.45074277 3.61869526 67.02640176 C3.35988122 63.14431174 3.10038084 59.26226797 2.84087372 55.38022423 C2.43323348 49.2744714 2.02968121 43.16846075 1.62924957 37.06223106 C1.48213986 34.8269133 1.3338192 32.59167484 1.18417358 30.35652542 C0.97952938 27.29609953 0.77944395 24.23540768 0.58050537 21.17460632 C0.52097868 20.2992977 0.46145198 19.42398907 0.40012145 18.52215594 C0.00331634 12.30858927 0 6.26011516 0 0 Z " fill="#E63946" transform="translate(82,186)"/>
<path d="M0 0 C1.07225327 -0.00426498 2.14450653 -0.00852997 3.24925232 -0.01292419 C4.99102753 -0.01224442 4.99102753 -0.01224442 6.76799011 -0.0115509 C8.00286667 -0.01490952 9.23774323 -0.01826813 10.51004028 -0.02172852 C13.88623353 -0.0295853 17.26236526 -0.0329052 20.63856339 -0.0335443 C22.75163614 -0.03425681 24.86470251 -0.03639493 26.97777367 -0.03904152 C34.36032391 -0.04828396 41.74285615 -0.05237783 49.12541199 -0.05158997 C55.98955288 -0.05098963 62.85361508 -0.06153563 69.71773607 -0.07733363 C75.62538355 -0.09044212 81.53300542 -0.09577247 87.44066733 -0.09513456 C90.9626074 -0.09488052 94.48447749 -0.09767927 98.00640297 -0.10831261 C101.93868157 -0.1198615 105.87085361 -0.11522655 109.80314636 -0.10920715 C110.95825714 -0.11482666 112.11336792 -0.12044617 113.30348206 -0.12623596 C125.71841704 -0.07805081 134.90981647 2.27798264 144.35466003 10.69621277 C152.25086688 19.7536265 155.52364223 29.88149194 159.29216003 41.13371277 C159.60644958 42.03468689 159.92073914 42.93566101 160.24455261 43.86393738 C161.867243 48.85811272 162.64334752 53.21240836 162.56437683 58.48136902 C162.54603035 60.07670471 162.54603035 60.07670471 162.52731323 61.70426941 C162.51158768 62.50598572 162.49586212 63.30770203 162.47966003 64.13371277 C163.35281357 64.12483032 164.2259671 64.11594788 165.12557983 64.10679626 C173.40666484 64.02621486 181.68761571 63.96552896 189.96900463 63.92646408 C194.22525117 63.90570433 198.48117024 63.87760295 202.73722839 63.83195496 C206.85456818 63.78807768 210.9715956 63.76448867 215.08915138 63.7542038 C216.64983847 63.74688671 218.21051099 63.7326012 219.77106285 63.71079254 C232.47622033 63.54051034 244.52744748 64.57775194 254.54997253 73.22355652 C262.92978291 81.518551 266.84966835 90.23869934 267.04216003 102.00871277 C266.92834474 113.27526527 263.54801888 122.04583367 255.64372253 130.23136902 C245.33912657 139.28974129 233.1928842 140.58356586 219.98112488 140.5146637 C218.52768796 140.51812546 217.07425367 140.5228935 215.62082481 140.52884543 C211.64929817 140.54131391 207.67798911 140.5352041 203.70646191 140.52588677 C199.41463978 140.51907952 195.12285422 140.52958581 190.83103943 140.53782654 C182.43221515 140.5511482 174.03347143 140.54829312 165.63464403 140.53958862 C158.80715812 140.53280631 151.97969474 140.53189772 145.15220642 140.53516006 C143.69317888 140.53584961 143.69317888 140.53584961 142.20467603 140.53655309 C140.22852468 140.53751229 138.25237333 140.53848493 136.27622199 140.53947087 C117.75714837 140.54802017 99.23811934 140.53819783 80.71905303 140.52206977 C64.83780075 140.50866701 48.95661426 140.51099523 33.07536316 140.52482605 C14.62137838 140.54088997 -3.83256735 140.54719624 -22.28655815 140.53798926 C-24.25533421 140.53703364 -26.22411028 140.53609052 -28.19288635 140.53516006 C-29.64580108 140.53446582 -29.64580108 140.53446582 -31.12806761 140.53375756 C-37.94529702 140.53117011 -44.76250161 140.53553339 -51.57972717 140.54259872 C-59.89059123 140.55102294 -68.20137032 140.5487142 -76.51222467 140.53275649 C-80.75043825 140.52488619 -84.98851027 140.52176097 -89.22672272 140.53170395 C-93.11036674 140.54067713 -96.99373868 140.53567509 -100.8773582 140.51977129 C-102.27830194 140.51643456 -103.67926891 140.51809251 -105.08019757 140.52539866 C-118.31408863 140.58909392 -129.3211341 138.26415056 -139.52815247 129.38761902 C-147.62184474 120.96106927 -150.28218381 111.19843799 -150.10993958 99.78874207 C-149.61908325 89.76912415 -145.98489488 81.45714435 -139.03596497 74.17668152 C-130.60805123 67.33227331 -121.14509617 64.00127011 -110.34333801 64.02018738 C-109.6403508 64.02004135 -108.93736359 64.01989532 -108.21307373 64.01974487 C-105.90270338 64.02043836 -103.59241489 64.0282042 -101.28205872 64.03605652 C-99.67494755 64.0379227 -98.06783582 64.03934566 -96.46072388 64.04034424 C-92.2406506 64.04415362 -88.02061199 64.05397037 -83.80055237 64.06504822 C-79.49035613 64.07529634 -75.18015426 64.07984914 -70.86994934 64.08488464 C-62.42006368 64.0955941 -53.97020614 64.1126515 -45.52033997 64.13371277 C-45.55534859 62.96403961 -45.55534859 62.96403961 -45.59106445 61.77073669 C-45.69797665 55.60725586 -45.48545417 50.51769618 -43.50862122 44.68058777 C-43.29851913 44.05065918 -43.08841705 43.42073059 -42.87194824 42.77171326 C-42.43076343 41.46171107 -41.98094969 40.15458318 -41.52253723 38.85050964 C-40.83111388 36.87879051 -40.17102537 34.89853493 -39.51448059 32.91496277 C-36.3746465 23.61441455 -32.9542815 15.82426015 -25.52033997 9.13371277 C-24.77783997 8.45308777 -24.03533997 7.77246277 -23.27033997 7.07121277 C-16.08959263 2.01204987 -8.75202747 0.01582724 0 0 Z M-5.52033997 36.13371277 C-6.55850677 38.34747355 -6.55850677 38.34747355 -7.34455872 40.84465027 C-7.65071106 41.75988464 -7.9568634 42.67511902 -8.27229309 43.61808777 C-8.58102356 44.57199402 -8.88975403 45.52590027 -9.20783997 46.50871277 C-9.528172 47.45488464 -9.84850403 48.40105652 -10.17854309 49.37590027 C-12.28162642 55.61190469 -12.28162642 55.61190469 -12.52033997 62.13371277 C-9.88685055 64.76720218 -8.72842891 64.3849457 -5.05427551 64.38768005 C-3.31275711 64.39613953 -3.31275711 64.39613953 -1.53605652 64.4047699 C-0.25598724 64.40072144 1.02408203 64.39667297 2.34294128 64.39250183 C3.69958179 64.39521077 5.05622082 64.39877115 6.41285706 64.40312195 C10.10287438 64.41225983 13.79278019 64.40869598 17.48279953 64.40236378 C21.33893389 64.39731099 25.19505851 64.40199321 29.05119324 64.40513611 C35.52769185 64.40877787 42.0041449 64.40397117 48.4806366 64.39445496 C55.97535892 64.38356999 63.46997243 64.38709542 70.96469212 64.39810777 C77.39189621 64.40717469 83.81906748 64.40846885 90.2462759 64.40323043 C94.08829978 64.40010744 97.93027247 64.39971036 101.77229309 64.40630341 C105.38379145 64.41206762 108.99514912 64.40809708 112.60663223 64.39651489 C114.56954503 64.39259535 116.53246969 64.39856183 118.49537659 64.4047699 C120.23689499 64.39631042 120.23689499 64.39631042 122.01359558 64.38768005 C123.53342293 64.38654898 123.53342293 64.38654898 125.08395386 64.38539505 C127.66459409 64.36835058 127.66459409 64.36835058 129.47966003 62.13371277 C129.14321198 56.03054504 127.56197074 50.58334454 125.60466003 44.82121277 C125.21987488 43.62528503 125.21987488 43.62528503 124.82731628 42.40519714 C124.44253113 41.25567566 124.44253113 41.25567566 124.04997253 40.08293152 C123.82068054 39.39545837 123.59138855 38.70798523 123.35514832 37.99967957 C122.3181837 35.78955113 121.38925095 34.66394373 119.47966003 33.13371277 C117.15157973 32.68255797 117.15157973 32.68255797 114.50749207 32.75276184 C113.48117676 32.74430237 112.45486145 32.7358429 111.39744568 32.72712708 C110.27215454 32.73319977 109.1468634 32.73927246 107.98747253 32.74552917 C106.80191772 32.74027222 105.61636292 32.73501526 104.3948822 32.729599 C101.14277239 32.71864745 97.89102806 32.72122864 94.63892365 32.73073626 C91.23703233 32.73832683 87.83516558 32.73128893 84.43327332 32.72657776 C78.72017528 32.72111843 73.00719354 32.72831639 67.29411316 32.74259949 C60.68717439 32.75892645 54.08051335 32.75363806 47.47358131 32.73712027 C41.80300836 32.72351037 36.13251905 32.72158328 30.46193504 32.72943628 C27.07426272 32.73411557 23.68672097 32.73473074 20.29905701 32.72482681 C16.52312767 32.71723449 12.74773663 32.72878622 8.97184753 32.74552917 C7.8465564 32.73945648 6.72126526 32.73338379 5.56187439 32.72712708 C4.53555908 32.73558655 3.50924377 32.74404602 2.451828 32.75276184 C1.55881989 32.75389292 0.66581177 32.75502399 -0.2542572 32.75618935 C-2.99272082 33.21241018 -3.84049482 33.9672295 -5.52033997 36.13371277 Z " fill="#E63845" transform="translate(197.5203399658203,25.866287231445313)"/>
<path d="M0 0 C4.81511199 2.73606364 7.62185749 5.96685567 9.77734375 11.125 C10.32808037 14.20241712 10.33527105 17.20925243 10.31079102 20.32983398 C10.32371437 21.67271484 10.32371437 21.67271484 10.3368988 23.04272461 C10.35949879 25.9858131 10.3528307 28.92794473 10.34375 31.87109375 C10.34898835 33.9270099 10.35526561 35.98292364 10.36253357 38.03883362 C10.37292688 42.34184094 10.36839174 46.64451734 10.35375977 50.94750977 C10.33657684 56.4499107 10.36006724 61.9512669 10.39524937 67.45355129 C10.41725609 71.6976457 10.41577386 75.9414914 10.40748405 80.18562508 C10.40666628 82.21372689 10.41349639 84.24184728 10.42825508 86.26989555 C10.44576075 89.11083233 10.43110847 91.94990805 10.40844727 94.79077148 C10.42013947 95.62063065 10.43183167 96.45048981 10.44387817 97.30549622 C10.34570858 103.38310424 8.55070616 107.37230738 4.77734375 112.125 C0.41619981 116.10133712 -3.93337671 116.53549524 -9.6484375 116.46875 C-13.71294582 115.9259932 -16.53458177 114.19097355 -19.22265625 111.125 C-22.45276516 105.92075705 -22.67286289 101.69323111 -22.67431641 95.75830078 C-22.68599854 94.83393219 -22.69768066 93.9095636 -22.7097168 92.95718384 C-22.74322071 89.91145366 -22.75403073 86.86621056 -22.76171875 83.8203125 C-22.77390451 81.69570751 -22.78639069 79.57110422 -22.79916382 77.44650269 C-22.82161894 72.99635975 -22.83119182 68.54638781 -22.83349609 64.09619141 C-22.83878029 58.4040949 -22.89012863 52.713427 -22.95301247 47.02171516 C-22.99394531 42.63437337 -23.00313879 38.24737505 -23.00361252 33.85985947 C-23.00898653 31.76193055 -23.02580677 29.66399757 -23.05446243 27.56625748 C-23.09127394 24.62662397 -23.08344737 21.69022508 -23.06494141 18.75048828 C-23.0853952 17.89100586 -23.105849 17.03152344 -23.12692261 16.14599609 C-23.02330135 10.13215042 -21.21547315 7.08552518 -17.11491966 2.73191643 C-12.07680185 -1.54647009 -6.18067827 -2.43316684 0 0 Z " fill="#ECE8E7" transform="translate(305.22265625,240.875)"/>
<path d="M0 0 C3.20476825 2.75759129 5.78858292 5.51466584 7.6875 9.3125 C7.80186674 12.26546238 7.85537404 15.19536566 7.86450195 18.14916992 C7.87435875 19.52262573 7.87435875 19.52262573 7.88441467 20.92382812 C7.90417505 23.96354245 7.91581754 27.00320726 7.92578125 30.04296875 C7.92985678 31.08049097 7.9339323 32.11801319 7.93813133 33.18697548 C7.95900565 38.68039375 7.9733004 44.17378695 7.98266602 49.66723633 C7.99372177 55.33894126 8.02810838 61.01025292 8.06783772 66.68181896 C8.0940009 71.0442019 8.1023577 75.4064912 8.10594749 79.76894569 C8.1108157 81.85929324 8.12243632 83.94963654 8.14098549 86.03990746 C8.16536584 88.96987263 8.16441354 91.89882159 8.1574707 94.82885742 C8.17028076 95.68886856 8.18309082 96.5488797 8.19628906 97.43495178 C8.14650694 103.21393736 7.04342136 106.5719097 3.6875 111.3125 C-1.10374302 115.04966955 -4.88924085 115.97118403 -10.94921875 115.6953125 C-16.04392595 114.87005414 -18.61293895 112.23894571 -21.625 108.25 C-24.44408367 103.3427062 -24.47729456 99.16950755 -24.50537109 93.65356445 C-24.51354858 92.76864822 -24.52172607 91.88373199 -24.53015137 90.97200012 C-24.55498702 88.03993402 -24.57151809 85.10791633 -24.5859375 82.17578125 C-24.59126118 81.17352194 -24.59658485 80.17126263 -24.60206985 79.13863182 C-24.62879543 73.83209371 -24.64817093 68.52557906 -24.66259766 63.21899414 C-24.67593006 58.83173746 -24.70377092 54.44494663 -24.74462891 50.05786133 C-24.79399619 44.75698918 -24.81872402 39.45653922 -24.82582474 34.15544701 C-24.83252955 32.13847433 -24.84773151 30.12151079 -24.87171555 28.10466957 C-24.9034369 25.27541994 -24.90339321 22.44778996 -24.89599609 19.6184082 C-24.91240143 18.7916156 -24.92880676 17.964823 -24.94570923 17.11297607 C-24.88153297 11.08945929 -23.1833131 6.95256743 -19.3125 2.3125 C-13.50660402 -2.59161647 -6.79339964 -3.4607885 0 0 Z " fill="#ECE8E8" transform="translate(221.3125,241.6875)"/>
</svg>
