<?xml version="1.0" encoding="UTF-8"?>
<svg id="Layer_2" data-name="Layer 2" xmlns="http://www.w3.org/2000/svg" xmlns:xlink="http://www.w3.org/1999/xlink" viewBox="0 0 149.7 180">
  <defs>
    <style>
      .cls-1 {
        fill: url(#linear-gradient);
      }

      .cls-1, .cls-2 {
        stroke-width: 0px;
      }

      .cls-2 {
        fill: #003449;
      }
    </style>
    <linearGradient id="linear-gradient" x1="3145.83" y1="26.48" x2="3272.93" y2="153.57" gradientTransform="translate(3298.21) rotate(-180) scale(1 -1)" gradientUnits="userSpaceOnUse">
      <stop offset="0" stop-color="#fac230"/>
      <stop offset=".22" stop-color="#fab72f"/>
      <stop offset=".59" stop-color="#fa9a2d"/>
      <stop offset="1" stop-color="#fa742b"/>
    </linearGradient>
  </defs>
  <g id="Layer_1-2" data-name="Layer 1">
    <g>
      <path class="cls-2" d="M138.75,52.92v11.2c-7.29-8.74-16.33-13.11-27.09-13.11s-19.89,3.83-27.36,11.44c-7.47,7.61-11.23,16.73-11.23,27.42s3.72,19.86,11.17,27.55c7.42,7.72,16.35,11.58,26.8,11.58s19.7-4.43,27.71-13.25v10.79h10.96V52.92h-10.96ZM131.19,110.48c-5.42,5.4-11.85,8.1-19.32,8.1s-14.06-2.81-19.46-8.45c-5.42-5.61-8.12-12.28-8.12-19.91s2.67-14.3,7.96-19.94c5.32-5.64,11.85-8.45,19.54-8.45s14.22,2.73,19.54,8.18c5.29,5.45,7.96,12.2,7.96,20.27s-2.7,14.79-8.1,20.21Z"/>
      <path class="cls-1" d="M0,104.9c1.72,10.3,5.18,20.02,10.08,28.82l36.02-16.45c-2.56-5.7-4.34-11.83-5.21-18.25L0,104.9ZM7.39,51.54s0-.02.01-.02c.96-2.03,2-4.02,3.1-5.97l35.97,16.42h0c-2.64,5.65-4.5,11.73-5.45,18.11L.16,74.2c1.41-7.97,3.87-15.57,7.23-22.66ZM43.39,12.27s.02-.01.02-.01c3.34-1.96,6.81-3.7,10.41-5.22l17.25,26.85c-3.13,1.99-6.09,4.25-8.84,6.73,0,0,0,0-.01.01-1.92,1.74-3.74,3.59-5.45,5.53l-27.41-23.76c4.33-3.82,9.02-7.21,14.02-10.13ZM88.78,0c4.09,0,8.13.27,12.09.81,0,0,.01,0,.02,0,2,.27,3.98.61,5.94,1v21.64c-2.1,0-4.17.1-6.22.29,0,0-.02,0-.02,0-4.26.39-8.4,1.19-12.39,2.35L80.65.37c2.67-.24,5.39-.37,8.13-.37ZM130.16,10.07c6.97,3.61,13.41,8.11,19.16,13.35l-6.72,10.46c-3.64-2.33-7.53-4.31-11.6-5.9,0,0-.01,0-.02-.01-1.8-.7-3.64-1.33-5.52-1.87l4.71-16.03ZM134.73,150.43s.01,0,.02,0c2.88-1.33,5.64-2.86,8.27-4.57l6.68,10.39c-5.78,5.32-12.27,9.9-19.3,13.58l-4.69-15.99c3.11-.92,6.12-2.06,9.02-3.4ZM87.95,153.82c.7.21,1.4.41,2.11.59,0,0,.01,0,.02,0,4.68,1.21,9.56,1.93,14.59,2.08,0,0,.01,0,.02,0,.72.03,1.43.04,2.15.04v21.63c-.17.04-.34.07-.5.1,0,.01-.01.02-.02.01-5.67,1.12-11.53,1.71-17.53,1.71-.97,0-1.94-.01-2.91-.06-.01,0-.02,0-.02,0-1.84-.06-3.66-.17-5.46-.34l7.57-25.79ZM56.32,133.3c2.7,3.16,5.7,6.06,8.96,8.67,0,0,.01.01.02.01,1.71,1.38,3.5,2.67,5.35,3.86l-17.29,26.91c-1.75-.75-3.47-1.55-5.16-2.41h-.01s0,0,0,0c-5.54-2.8-10.77-6.17-15.57-10.02-.01,0-.02,0-.02-.02-1.28-1.02-2.52-2.08-3.74-3.17l27.48-23.82Z"/>
    </g>
  </g>
</svg>