<?xml version="1.0" encoding="UTF-8"?>
<svg version="1.1" xmlns="http://www.w3.org/2000/svg" width="512" height="512">
<path d="M0 0 C1.47601476 -0.00627656 2.95202799 -0.01292438 4.42803955 -0.01991272 C9.24294974 -0.04079617 14.05785972 -0.05129338 18.87280273 -0.0612793 C20.53712416 -0.06533134 22.20144542 -0.06944839 23.86576653 -0.07362938 C31.68043605 -0.09263854 39.49509632 -0.10688408 47.30978447 -0.11524135 C56.31003541 -0.12502832 65.31004139 -0.15140366 74.310206 -0.19174224 C81.28455451 -0.22192318 88.25883278 -0.23671168 95.23324531 -0.24002236 C99.39179437 -0.2423685 103.5500804 -0.25127375 107.70855904 -0.27648354 C111.61818651 -0.29980738 115.5273784 -0.30398043 119.4370575 -0.29372215 C120.86728301 -0.2932279 122.29753036 -0.29951572 123.72768974 -0.3132782 C131.64398941 -0.38516745 137.53881675 -0.2512505 144.24389648 4.17700195 C147.76829605 8.0628784 149.05318373 11.72468538 149.40014648 16.8684082 C149.13006105 20.85892053 147.87786007 24.16214657 145.24389648 27.17700195 C138.576339 32.36459015 131.62363798 31.73396865 123.48364258 31.67529297 C121.98334718 31.67911967 120.48305546 31.68474171 118.98277283 31.6920166 C115.76228707 31.70393702 112.54212752 31.70350158 109.3216362 31.69342232 C104.22843497 31.67782667 99.13556716 31.69156264 94.04238892 31.7094574 C84.1534746 31.74023588 74.2646629 31.7417796 64.37570953 31.73980713 C51.7809904 31.73841291 39.18634978 31.74874847 26.59168875 31.78838485 C21.52924823 31.80331742 16.46710407 31.80304978 11.40465903 31.79090703 C8.25666271 31.78619728 5.10877994 31.79371362 1.96080208 31.80445099 C0.50191859 31.80685749 -0.95698388 31.80412047 -2.41584587 31.79584312 C-4.40835905 31.78521424 -6.4009492 31.79470573 -8.39346313 31.80519104 C-10.06532401 31.80431158 -10.06532401 31.80431158 -11.77095985 31.80341434 C-15.43914205 32.26248351 -18.12336785 33.54426629 -20.75610352 36.17700195 C-20.86036032 37.95303238 -20.89378623 39.73324004 -20.90035534 41.51231575 C-20.90706318 42.67692742 -20.91377102 43.8415391 -20.92068213 45.04144204 C-20.92419565 46.98511204 -20.92419565 46.98511204 -20.92778015 48.9680481 C-20.93377246 50.34573232 -20.94019714 51.72341472 -20.94701988 53.10109508 C-20.96455722 56.90484104 -20.97579599 60.70858413 -20.98603022 64.5123558 C-20.9981083 68.60795731 -21.01588287 72.70353462 -21.03289795 76.79911804 C-21.06527802 84.83116335 -21.0920767 92.86321808 -21.11670073 100.89529057 C-21.13673465 107.42362627 -21.15833078 113.9519549 -21.18103981 120.48028183 C-21.24519505 138.97697354 -21.30512515 157.47367209 -21.35972192 175.97039451 C-21.36266896 176.96863356 -21.365616 177.96687261 -21.36865234 178.99536133 C-21.37160208 179.9948156 -21.37455181 180.99426988 -21.37759093 182.02401064 C-21.42563314 198.21466831 -21.4837099 214.4052724 -21.54635002 230.59587957 C-21.61050615 247.2082362 -21.66713566 263.82060377 -21.71591789 280.43301284 C-21.74347483 289.76430729 -21.77415993 299.09556745 -21.81293297 308.42682266 C-21.84589685 316.37416504 -21.87188002 324.32149215 -21.88878926 332.26888557 C-21.89761881 336.32438394 -21.90971171 340.37980313 -21.93059731 344.43525887 C-21.94963962 348.14878376 -21.9593345 351.86221202 -21.96162079 355.57578395 C-21.96524915 357.55391368 -21.97881946 359.53201747 -21.99275512 361.51010144 C-22.07401861 370.0650656 -22.07401861 370.0650656 -19.75610352 378.17700195 C-16.55083533 380.33569923 -13.81770797 380.42978692 -10.01482487 380.43706417 C-8.83603986 380.44412976 -7.65725485 380.45119535 -6.44274908 380.45847505 C-5.14656147 380.45605997 -3.85037386 380.45364488 -2.51490784 380.45115662 C-1.12495842 380.45560833 0.26498846 380.46092215 1.6549316 380.46702534 C5.47859104 380.48122345 9.30216925 380.48286829 13.12585127 380.48242843 C17.24794999 380.48407501 21.37001508 380.49713838 25.49209595 380.50862122 C34.50636964 380.53148089 43.5206198 380.53939256 52.53491855 380.54444766 C58.16129899 380.54770294 63.78767258 380.55422431 69.41404915 380.56144905 C84.98649469 380.58101465 100.55893386 380.59741962 116.13139248 380.60032558 C117.12807918 380.60051315 118.12476588 380.60070072 119.1516552 380.60089398 C121.17223934 380.60126023 123.19282349 380.60162393 125.21340763 380.60198509 C126.21644991 380.6021679 127.21949219 380.60235071 128.25292969 380.60253906 C129.25719331 380.60271961 130.26145693 380.60290016 131.29615278 380.60308618 C147.57852684 380.60662985 163.86076881 380.63366444 180.14309704 380.67103695 C196.85274828 380.70908406 213.56233392 380.72848279 230.27202946 380.7287851 C239.65691276 380.72937041 249.04163843 380.73790994 258.42648125 380.76678276 C266.41560413 380.79124838 274.40451185 380.79861214 282.39366203 380.78353523 C286.47132827 380.77634698 290.54856924 380.77730553 294.62618828 380.79994583 C298.35761399 380.82046595 302.0882856 380.81800197 305.81970251 380.79707099 C307.81209468 380.79189798 309.80450343 380.8114088 311.79679865 380.83173269 C318.55194378 380.82529602 318.55194378 380.82529602 324.54071712 378.03666687 C326.54907921 374.66459536 326.86691206 372.72082233 326.86294556 368.80763245 C326.87389755 367.52206451 326.88484955 366.23649658 326.89613342 364.91197205 C326.88309774 363.49453326 326.86960906 362.07709858 326.85571289 360.65966797 C326.85925524 359.16128883 326.86503416 357.66291357 326.87287903 356.16455078 C326.88504961 352.94177449 326.88160116 349.71952771 326.86604691 346.49676704 C326.84172061 341.39921789 326.85322902 336.30213196 326.86972046 331.20457458 C326.89421071 322.22245843 326.88841647 313.24055309 326.87591553 304.25842285 C326.85733215 290.73899976 326.86219529 277.21961695 326.89594972 263.70022339 C326.90745545 258.6346955 326.90303596 253.56950503 326.88592935 248.50399601 C326.87802293 245.35049795 326.88228837 242.19709777 326.8896389 239.04360199 C326.89044807 237.58352187 326.88611264 236.12342825 326.87619591 234.66338158 C326.86329303 232.66674759 326.87058197 230.67001381 326.8788147 228.6733551 C326.87598701 226.99898046 326.87598701 226.99898046 326.87310219 225.29078007 C327.4399868 220.53031603 329.13610013 217.25485787 332.55639648 213.92700195 C337.54377185 210.67940869 341.55028941 209.72775237 347.35717773 210.7121582 C351.5837324 211.75348327 353.66750294 213.44964342 356.35217285 216.83746338 C359.61706854 222.79492273 358.79999413 229.88298219 358.76147461 236.48461914 C358.76689992 238.04414523 358.77402487 239.60366618 358.78271484 241.16317749 C358.80090875 245.38663583 358.79389546 249.60970211 358.7811985 253.83316708 C358.77104317 258.26429711 358.78047187 262.69539447 358.78674316 267.12652588 C358.79401525 274.5711466 358.78444659 282.01560849 358.76538086 289.46020508 C358.74364491 298.04614496 358.75064131 306.63170437 358.77268648 315.21763492 C358.79089129 322.60560555 358.7933731 329.99346219 358.7829318 337.38144803 C358.77672058 341.7865555 358.77579484 346.19148475 358.78907776 350.59658051 C358.8007087 354.74344623 358.79247973 358.8898264 358.76950073 363.03664017 C358.76425065 364.55104647 358.76566331 366.06549425 358.77455139 367.57988358 C358.84783886 381.34570461 356.25755145 391.68011151 346.68920898 401.82543945 C339.52893853 408.5745939 330.12412109 412.29454262 320.363204 412.31122303 C319.15328523 412.31568087 317.94336646 412.32013872 316.69678348 412.32473165 C315.35233461 412.32464235 314.00788574 412.32445251 312.66343689 412.32417297 C311.23651754 412.32747267 309.80959913 412.33119847 308.38268191 412.33531445 C304.45660852 412.34533062 300.53055043 412.34905063 296.60446608 412.35170376 C292.37183268 412.35560798 288.13921137 412.36518628 283.90658569 412.37391663 C273.68193615 412.39367828 263.45728562 412.40374712 253.23262176 412.41264442 C248.41693215 412.41702803 243.60124363 412.42239467 238.78555489 412.42763329 C222.77562533 412.44464569 206.76569645 412.4591395 190.75575924 412.46638203 C186.60117021 412.4682919 182.44658119 412.47021224 178.29199219 412.47216797 C177.25939628 412.47265171 176.22680038 412.47313545 175.16291369 412.47363385 C158.43842774 412.48193277 141.71401334 412.50726733 124.98955863 412.53974865 C107.81657899 412.57282896 90.6436357 412.59083169 73.47062403 412.59402627 C63.82958798 412.59619052 54.18865627 412.60492675 44.54765129 412.63048744 C36.33621322 412.65220775 28.12490483 412.66023832 19.91344129 412.65052066 C15.72572333 412.64597974 11.53827284 412.64784991 7.35059166 412.6672821 C3.5116294 412.68494181 -0.32687081 412.68389364 -4.16583817 412.66838481 C-6.2015086 412.66489528 -8.23718404 412.68101406 -10.27278668 412.69798928 C-22.70649608 412.61111852 -33.24598197 409.13968867 -42.47094727 400.5871582 C-49.057964 393.46379405 -52.87390522 384.92901413 -52.89032459 375.26507473 C-52.89701136 373.43974639 -52.89701136 373.43974639 -52.90383321 371.57754272 C-52.90374392 370.22523335 -52.90355407 368.87292397 -52.90327454 367.52061462 C-52.90657421 366.08544568 -52.9103 364.65027767 -52.91441602 363.21511084 C-52.92443244 359.26623432 -52.92815224 355.317373 -52.93080533 351.36848557 C-52.93470947 347.1113121 -52.94428777 342.85415065 -52.95301819 338.59698486 C-52.97278005 328.3130096 -52.98284871 318.02903335 -52.99174598 307.74504384 C-52.99612955 302.90146069 -53.00149621 298.05787863 -53.00673485 293.21429634 C-53.02374727 277.11172049 -53.03824109 261.00914531 -53.04548359 244.90656185 C-53.04739347 240.72790971 -53.0493138 236.54925758 -53.05126953 232.37060547 C-53.05199514 230.81273977 -53.05199514 230.81273977 -53.05273541 229.22340203 C-53.06103439 212.40191838 -53.08636904 195.58050587 -53.11885021 178.75905328 C-53.15193008 161.48663256 -53.16993321 144.21424798 -53.17312783 126.94179541 C-53.17529212 117.24486827 -53.18402894 107.54804486 -53.209589 97.85114861 C-53.23130871 89.5921336 -53.23934018 81.33324751 -53.22962222 73.07420718 C-53.22508113 68.8621866 -53.2269525 64.65043196 -53.24638367 60.43844795 C-53.26404211 56.57728148 -53.26299621 52.71657442 -53.24748638 48.85540289 C-53.24511434 47.4636749 -53.24941284 46.07191486 -53.26131503 44.68023574 C-53.36006026 32.36466696 -50.8743476 21.74170378 -42.75610352 12.17700195 C-30.4079292 0.20804221 -16.2960871 0.03065112 0 0 Z " fill="#000000" transform="translate(93.756103515625,58.822998046875)"/>
<path d="M0 0 C4.89803132 7.34704699 1.32172136 19.68916632 0.41113281 28.18066406 C0.23992768 29.80928862 0.06909005 31.43795185 -0.10140991 33.06665039 C-0.56364177 37.46767488 -1.03225071 41.86799583 -1.5029974 46.26811695 C-1.79725071 49.01913759 -2.09051471 51.7702621 -2.38352203 54.52141571 C-3.30145981 63.13589377 -4.22364029 71.74990334 -5.1514709 80.36332154 C-6.2213096 90.29595511 -7.27665539 100.22999038 -8.3197391 110.16546845 C-9.12815406 117.85699165 -9.94965176 125.54704777 -10.78105283 133.23611999 C-11.27688047 137.82455442 -11.76708109 142.41342565 -12.24355316 147.00391388 C-12.69152053 151.31647349 -13.15567887 155.62698325 -13.63234329 159.9364624 C-13.80436195 161.51726046 -13.97053985 163.09870675 -14.13042068 164.6807785 C-14.34970381 166.84167933 -14.58999448 168.99924701 -14.83563232 171.1572876 C-14.96468334 172.36513035 -15.09373436 173.5729731 -15.22669601 174.81741714 C-16.11705504 178.48174765 -17.36329613 180.33330472 -20 183 C-22.9375 184 -22.9375 184 -26 184 C-29.9704669 181.99299415 -32.85054171 179.39299106 -35.97387695 176.25317383 C-36.44277847 175.78456436 -36.91167999 175.3159549 -37.39479065 174.83314514 C-38.93074777 173.29580388 -40.45951408 171.75151968 -41.98828125 170.20703125 C-43.0568688 169.13471032 -44.12590118 168.0628325 -45.19535828 166.99137878 C-47.99945884 164.17966743 -50.79749925 161.36200052 -53.59429932 158.54302979 C-56.4530946 155.66372097 -59.31760917 152.79011442 -62.18164062 149.91601562 C-67.79335795 144.28289346 -73.39868282 138.64346361 -79 133 C-85.3532761 138.23731951 -91.12473808 144.00371624 -96.9206543 149.83886719 C-98.00854642 150.93032107 -99.09667762 152.02153671 -100.18502808 153.11253357 C-102.51627921 155.45030327 -104.84601101 157.7895727 -107.17459679 160.12999725 C-110.8569951 163.83076888 -114.54380838 167.52712093 -118.23139954 171.22271729 C-128.7124836 181.72789574 -139.18758662 192.2390264 -149.65844727 202.75439453 C-155.45051213 208.57100115 -161.24616051 214.38401321 -167.04568034 220.193187 C-170.71249028 223.86653788 -174.37474851 227.54434892 -178.0337013 231.22552538 C-180.30764512 233.51119131 -182.58575147 235.79267241 -184.86506271 238.0729847 C-185.92138088 239.13145157 -186.97597531 240.1916419 -188.02871513 241.25366783 C-189.46521133 242.70234411 -190.9084849 244.14429064 -192.35209656 245.58587646 C-193.15786983 246.39479214 -193.96364309 247.20370781 -194.79383373 248.03713608 C-197.92170374 250.82005561 -199.93301904 251.93110595 -204.11938477 252.20141602 C-210.03255562 251.10085988 -214.03623783 245.85726401 -218.08984375 241.77734375 C-219.0431847 240.83313481 -219.99726316 239.88966999 -220.95204163 238.94691467 C-222.94477405 236.97200635 -224.92580955 234.98620706 -226.8996582 232.99243164 C-229.42388445 230.44520978 -231.97845387 227.93111312 -234.54317379 225.42475033 C-236.51938981 223.48531693 -238.47655573 221.527497 -240.42874336 219.56390572 C-241.81555064 218.17664481 -243.21942095 216.80650902 -244.6235199 215.43675232 C-251.55083565 208.35439678 -251.55083565 208.35439678 -251.68994141 203.54760742 C-250.09008315 195.32130157 -241.22856343 189.09154864 -235.21223545 183.56849098 C-224.74527677 173.94739763 -214.73588888 163.86646726 -204.69968534 153.80107927 C-202.13512201 151.23016067 -199.56762633 148.6621735 -197.00047302 146.09384155 C-192.16467105 141.25496148 -187.33141818 136.41354394 -182.49913305 131.57115209 C-176.98700536 126.04775232 -171.47195489 120.52727471 -165.95668709 115.0070107 C-154.634593 103.67453218 -143.31607717 92.33848694 -132 81 C-135.43588923 76.91918331 -138.91627494 72.96014821 -142.7043457 69.19799805 C-143.58157791 68.32406906 -144.45881012 67.45014008 -145.36262512 66.54972839 C-146.75513741 65.16966362 -146.75513741 65.16966362 -148.17578125 63.76171875 C-149.15159496 62.79031894 -150.12710962 61.81861864 -151.1023407 60.84663391 C-154.16956713 57.79074136 -157.24075075 54.73884533 -160.3125 51.6875 C-163.89173753 48.13188963 -167.46932067 44.57464596 -171.04274559 41.01319313 C-172.47050336 39.59191594 -173.90123657 38.17368087 -175.33210754 36.75553894 C-176.19357895 35.89737076 -177.05505035 35.03920258 -177.94262695 34.1550293 C-179.0846331 33.02087837 -179.0846331 33.02087837 -180.24971008 31.86381531 C-182.67690604 29.27918922 -182.97453046 28.22922583 -183.375 24.625 C-183 21 -183 21 -181.08056641 18.86772156 C-176.88795634 16.32577726 -173.15824978 15.98615861 -168.3359375 15.49145508 C-167.33734711 15.37532521 -166.33875671 15.25919535 -165.30990601 15.13954639 C-163.08291835 14.88318797 -160.85498958 14.63491591 -158.62634277 14.39340591 C-154.83780882 13.9824046 -151.05224686 13.54941493 -147.26660156 13.11264038 C-138.38912496 12.09285967 -129.50738824 11.11264996 -120.625 10.13671875 C-119.82762924 10.04903363 -119.03025848 9.9613485 -118.20872498 9.87100625 C-110.66719993 9.04178587 -103.1254849 8.21431728 -95.58325195 7.39155865 C-86.01449128 6.34763664 -76.4468559 5.29439695 -66.88048363 4.22880334 C-60.1013799 3.4744469 -53.32118014 2.73052294 -46.54007912 1.99433929 C-42.50796727 1.55631915 -38.47647373 1.11379002 -34.44610596 0.65997887 C-30.67143897 0.23517927 -26.89557976 -0.17666379 -23.11841965 -0.57867241 C-21.73724132 -0.72792767 -20.35655467 -0.88181987 -18.9764595 -1.04077911 C-5.60921429 -2.57530062 -5.60921429 -2.57530062 0 0 Z " fill="#000000" transform="translate(462,50)"/>
</svg>
